<svg width="973" height="368" viewBox="0 0 973 368" fill="none" xmlns="http://www.w3.org/2000/svg">
<path d="M693.892 24.1765C696.43 13.2455 704.162 5.02965 715.318 1.40911C717.568 0.679153 723.468 0.351135 728.428 0.679155C746.291 1.86341 749.845 4.59842 827.21 76.6858L898.05 142.693L898.45 71.3467L898.851 0H935.857H972.863L972.417 120.548L971.97 241.096L968.078 248.753C962.507 259.715 954.308 263.788 939.545 262.932C920.363 261.818 917.534 259.664 838.193 185.778L767.15 119.619L766.75 190.711L766.349 261.8H729.405H692.46L692.497 145.915C692.517 82.179 693.145 27.3951 693.892 24.1765Z" fill="#3395E3"/>
<path d="M292.365 26.0476C283.727 12.8467 276.66 1.58466 276.66 1.02256C276.66 0.460462 296.931 0.00924075 321.705 0.0200208L366.75 0.0384906L416.8 77.3203C444.327 119.824 467.897 155.897 469.178 157.48C471.347 160.163 475.075 154.884 523.765 80.1801L576.024 0H622H667.979L587.434 120.505C499.483 252.092 493.983 259.339 478.622 263.902C465.173 267.895 455.049 264.266 441.956 250.757C437.103 245.752 409.437 205.002 371.034 146.3C336.404 93.3625 301.003 39.2484 292.365 26.0476Z" fill="#FFDF00"/>
<path d="M2.9398 317.531C2.9398 312.537 6.36957 308.2 13.2291 304.52C20.0886 300.84 30.6229 299 44.832 299C60.0209 299 71.5352 301.103 79.3746 305.309C86.2342 308.989 89.6639 313.326 89.6639 318.32H72.7601C72.7601 315.166 70.8002 312.537 66.8805 310.434C62.4708 308.069 55.6112 306.886 46.3019 306.886C36.0126 306.886 28.908 307.937 24.9883 310.04C21.5585 311.88 19.8437 313.983 19.8437 316.349C19.8437 318.714 20.8236 320.423 22.7835 321.474C25.2333 322.789 29.643 324.103 36.0126 325.417C47.2818 328.046 60.0209 331.069 74.23 334.486C78.1497 335.274 81.8245 336.589 85.2542 338.429C90.6439 341.32 93.3387 344.737 93.3387 348.68C93.3387 353.937 89.9089 358.406 83.0494 362.086C75.6999 366.029 63.6957 368 47.0368 368C30.8679 368 18.3738 365.634 9.55436 360.903C3.18479 357.486 0 352.491 0 345.92H16.9039C16.9039 350.651 18.8637 354.069 22.7835 356.171C28.1731 359.063 36.5025 360.509 47.7718 360.509C58.0611 360.509 65.6556 359.194 70.5552 356.566C74.475 354.463 76.4348 352.36 76.4348 350.257C76.4348 347.891 74.9649 345.92 72.0251 344.343C69.5753 343.029 65.6556 341.714 60.2659 340.4C55.3663 339.086 48.9967 337.509 41.1572 335.669C32.3378 333.566 25.2333 331.857 19.8437 330.543C15.9239 329.754 12.4942 328.571 9.55436 326.994C5.14465 324.629 2.9398 321.474 2.9398 317.531Z" fill="url(#paint0_linear_103_18)"/>
<path d="M288.076 333.5C288.076 322.46 293.955 313.786 305.715 307.477C316.004 301.957 328.498 299.197 343.197 299.197C357.896 299.197 370.39 301.957 380.68 307.477C392.439 313.786 398.318 322.46 398.318 333.5C398.318 344.54 392.439 353.214 380.68 359.523C370.39 365.043 357.896 367.803 343.197 367.803C328.498 367.803 316.004 365.043 305.715 359.523C293.955 353.214 288.076 344.54 288.076 333.5ZM343.197 306.689C333.888 306.689 325.558 308.66 318.209 312.603C309.879 317.071 305.715 324.037 305.715 333.5C305.715 342.963 309.879 349.929 318.209 354.397C325.558 358.34 333.888 360.311 343.197 360.311C352.506 360.311 360.836 358.34 368.185 354.397C376.515 349.929 380.68 342.963 380.68 333.5C380.68 324.037 376.515 317.071 368.185 312.603C360.836 308.66 352.506 306.689 343.197 306.689Z" fill="url(#paint1_linear_103_18)"/>
<path d="M593.055 299.789H677.575V307.28H609.959V329.36H662.876V336.851H609.959V367.211H593.055V299.789Z" fill="url(#paint2_linear_103_18)"/>
<path d="M872.312 299.789H973V307.28H931.108V367.211H914.204V307.28H872.312V299.789Z" fill="url(#paint3_linear_103_18)"/>
<path d="M143.588 184.291L103.718 252.443H146.593L283.915 252.05L239.941 184.29L143.588 184.291Z" fill="#FF2400"/>
<path d="M240.797 21.5719C232.84 13.3576 222.6 7.12829 212.743 4.50721C202.767 1.85379 194.82 2.64537 184.241 7.34545C167.131 14.9454 164.362 18.7768 84.1744 145.847C43.0733 210.977 9.69539 264.515 10.0018 264.82C10.2374 265.055 47.3217 265.153 99.0023 265.085L152.489 183.459L203.715 105.283C204.228 105.237 228.137 141.204 256.845 185.211L309.044 265.223L354.253 265.291C390.075 265.345 399.308 264.955 398.716 263.412C396.5 257.635 245.569 26.4999 240.797 21.5719Z" fill="#FF2400"/>
<defs>
<linearGradient id="paint0_linear_103_18" x1="0" y1="333.5" x2="973" y2="333.5" gradientUnits="userSpaceOnUse">
<stop stop-color="#243949"/>
<stop offset="1" stop-color="#517FA4"/>
</linearGradient>
<linearGradient id="paint1_linear_103_18" x1="0" y1="333.5" x2="973" y2="333.5" gradientUnits="userSpaceOnUse">
<stop stop-color="#243949"/>
<stop offset="1" stop-color="#517FA4"/>
</linearGradient>
<linearGradient id="paint2_linear_103_18" x1="0" y1="333.5" x2="973" y2="333.5" gradientUnits="userSpaceOnUse">
<stop stop-color="#243949"/>
<stop offset="1" stop-color="#517FA4"/>
</linearGradient>
<linearGradient id="paint3_linear_103_18" x1="0" y1="333.5" x2="973" y2="333.5" gradientUnits="userSpaceOnUse">
<stop stop-color="#243949"/>
<stop offset="1" stop-color="#517FA4"/>
</linearGradient>
</defs>
</svg>
